<?xml version="1.0" encoding="UTF-8" standalone="no"?>
<svg
   xmlns:dc="http://purl.org/dc/elements/1.1/"
   xmlns:cc="http://creativecommons.org/ns#"
   xmlns:rdf="http://www.w3.org/1999/02/22-rdf-syntax-ns#"
   xmlns:svg="http://www.w3.org/2000/svg"
   xmlns="http://www.w3.org/2000/svg"
   xmlns:xlink="http://www.w3.org/1999/xlink"
   xmlns:sodipodi="http://sodipodi.sourceforge.net/DTD/sodipodi-0.dtd"
   xmlns:inkscape="http://www.inkscape.org/namespaces/inkscape"
   inkscape:version="1.0 (4035a4fb49, 2020-05-01)"
   sodipodi:docname="caltrain.svg"
   id="svg4"
   xml:space="preserve"
   enable-background="new 0 0 100 100"
   viewBox="0 0 78.348755 97.75"
   y="0px"
   x="0px"
   version="1.1"
   fill="#000000"
   width="235.04626"
   height="293.25"><metadata
     id="metadata10"><rdf:RDF><cc:Work
         rdf:about=""><dc:format>image/svg+xml</dc:format><dc:type
           rdf:resource="http://purl.org/dc/dcmitype/StillImage" /><dc:title></dc:title></cc:Work></rdf:RDF></metadata><defs
     id="defs8"><linearGradient
       id="linearGradient839"
       inkscape:collect="always"><stop
         id="stop835"
         offset="0"
         style="stop-color:#6e6e6e;stop-opacity:1" /><stop
         id="stop837"
         offset="1"
         style="stop-color:#999999;stop-opacity:1" /></linearGradient><linearGradient
       gradientTransform="translate(-10.825461,-1.125)"
       gradientUnits="userSpaceOnUse"
       y2="100.58823"
       x2="90.794617"
       y1="-1.2941176"
       x1="8.4992476"
       id="linearGradient843"
       xlink:href="#linearGradient839"
       inkscape:collect="always" /></defs><sodipodi:namedview
     inkscape:current-layer="svg4"
     inkscape:window-maximized="1"
     inkscape:window-y="-8"
     inkscape:window-x="-8"
     inkscape:cy="193.04417"
     inkscape:cx="106.4668"
     inkscape:zoom="1.4166667"
     fit-margin-bottom="0"
     fit-margin-right="0"
     fit-margin-left="0"
     fit-margin-top="0"
     showgrid="false"
     id="namedview6"
     inkscape:window-height="1017"
     inkscape:window-width="1920"
     inkscape:pageshadow="2"
     inkscape:pageopacity="0"
     guidetolerance="10"
     gridtolerance="10"
     objecttolerance="10"
     borderopacity="1"
     bordercolor="#666666"
     pagecolor="#ffffff" /><path
     style="fill:url(#linearGradient843);fill-opacity:1;stroke:#636363;stroke-opacity:1"
     id="path2"
     d="m 77.183539,94.502 -22.943,-15.295 12.33,-3.456 c 0.882,-0.255 1.634,-0.866 2.065,-1.684 0.431,-0.822 0.507,-1.762 0.215,-2.651 l -2.998,-8.995 c 1.562,-0.927 3.916,-2.936 3.916,-6.621 V 35.846 c 0,-3.093 -2.25,-5.431 -4.85,-6.518 V 18.811 c 0.358,-3.261 -1.775,-6.213 -5.106,-7.044 l -9.44,-2.362 V 8.206 c 0,-3.722 -2.983,-7.706 -7.426,-7.706 h -7.564 c -3.876,0 -7.406,3.673 -7.406,7.706 V 9.4 l -9.46,2.366 c -3.342,0.835 -5.467,3.789 -5.087,7.049 v 10.512 c -2.599,1.086 -4.8500002,3.425 -4.8500002,6.519 V 55.8 c 0,3.507 2.1000002,5.635 3.9000002,6.666 l -2.9840002,8.956 c -0.29,0.884 -0.214,1.823 0.22,2.652 0.4290002,0.811 1.1810002,1.422 2.0740002,1.681 l 12.318,3.453 -22.9420002,15.294 c -0.68899997,0.46 -0.87599997,1.391 -0.41599997,2.08 0.28899997,0.434 0.76499997,0.668 1.24899997,0.668 0.286,0 0.575,-0.081 0.831,-0.252 l 9.3190002,-6.213 h 54.051 l 9.319,6.213 c 0.256,0.171 0.545,0.252 0.831,0.252 0.484,0 0.96,-0.234 1.249,-0.668 0.461,-0.689 0.274,-1.62 -0.415,-2.08 z m -22.759,-11.566 h -13.482 l 9.794,-2.745 c 0.111,0.253 0.291,0.479 0.538,0.645 z m -13.75,-72.865 7.472,1.869 c 0.216,0.12 0.462,0.195 0.727,0.195 0.014,0 0.026,-0.004 0.039,-0.004 l 10.174,2.545 c 1.87,0.467 3.066,2.09 2.846,3.859 -0.008,0.063 -0.012,0.124 -0.012,0.187 v 9.803 l -21.246,-4.501 z m -24.258,8.454 c -0.234,-1.763 0.954,-3.382 2.827,-3.849 l 18.431,-4.61 v 13.958 l -21.245,4.502 v -9.804 c 0,-0.066 -0.004,-0.131 -0.013,-0.197 z m 0.244,22.268 c 0,-0.828 0.672,-1.5 1.5,-1.5 h 13.195 c 0.704,-3.677 3.939,-6.465 7.818,-6.465 3.879,0 7.114,2.788 7.818,6.465 h 13.194 c 0.828,0 1.5,0.672 1.5,1.5 0,0.828 -0.672,1.5 -1.5,1.5 h -13.193 c -0.704,3.677 -3.939,6.466 -7.818,6.466 -3.879,0 -7.114,-2.789 -7.818,-6.466 h -13.196 c -0.828,0 -1.5,-0.672 -1.5,-1.5 z m 39.953,12.243 c 0,1.869 -1.521,3.391 -3.391,3.391 -1.87,0 -3.391,-1.521 -3.391,-3.391 0,-1.87 1.521,-3.392 3.391,-3.392 1.87,0 3.391,1.522 3.391,3.392 z m -29.733,0 c 0,1.869 -1.521,3.391 -3.391,3.391 -1.87,0 -3.391,-1.521 -3.391,-3.391 0,-1.87 1.521,-3.392 3.391,-3.392 1.87,0 3.391,1.522 3.391,3.392 z m -4.589,16.686 c -0.215,0.621 -0.796,1.01 -1.418,1.01 -0.163,0 -0.328,-0.026 -0.49,-0.082 -0.783,-0.271 -1.198,-1.126 -0.928,-1.908 l 1.825,-5.274 -0.948,-0.189 c -0.813,-0.162 -1.339,-0.952 -1.177,-1.765 0.162,-0.813 0.953,-1.344 1.765,-1.177 l 18.244,3.646 18.245,-3.646 c 0.812,-0.168 1.603,0.364 1.765,1.177 0.162,0.813 -0.364,1.603 -1.177,1.765 l -1.087,0.217 1.815,5.247 c 0.271,0.782 -0.145,1.637 -0.928,1.908 -0.162,0.056 -0.327,0.082 -0.49,0.082 -0.622,0 -1.203,-0.389 -1.418,-1.01 l -1.949,-5.634 -2.021,0.404 1.584,5.918 c 0.214,0.8 -0.261,1.622 -1.062,1.837 -0.13,0.034 -0.26,0.051 -0.389,0.051 -0.662,0 -1.269,-0.441 -1.448,-1.112 l -1.634,-6.104 -2.379,0.476 1.329,6.875 c 0.157,0.813 -0.375,1.601 -1.188,1.758 -0.097,0.019 -0.192,0.027 -0.287,0.027 -0.704,0 -1.332,-0.498 -1.471,-1.215 l -1.326,-6.857 -2.985,0.597 v 9.612 c 0,0.828 -0.672,1.5 -1.5,1.5 -0.828,0 -1.5,-0.672 -1.5,-1.5 v -9.612 l -3.129,-0.625 -1.33,6.885 c -0.139,0.718 -0.767,1.216 -1.471,1.216 -0.095,0 -0.19,-0.009 -0.286,-0.027 -0.813,-0.157 -1.346,-0.944 -1.188,-1.757 l 1.334,-6.904 -2.376,-0.475 -1.643,6.13 c -0.18,0.67 -0.786,1.111 -1.448,1.111 -0.129,0 -0.259,-0.017 -0.39,-0.051 -0.8,-0.215 -1.274,-1.037 -1.061,-1.838 l 1.593,-5.945 -2.019,-0.403 z m 4.783,11.113 c 0.247,-0.165 0.427,-0.392 0.538,-0.645 l 9.794,2.745 h -13.482 z m -10.425,6.95 2.822,-1.882 c 0.1,0.021 0.201,0.032 0.307,0.032 h 39.147 l 2.774,1.85 z" /></svg>
