<svg xmlns="http://www.w3.org/2000/svg" xmlns:xlink="http://www.w3.org/1999/xlink" id="2b8e3008-3352-469a-8231-8c916447ef06" data-name="Layer 1" width="1037.94" height="772.29" viewBox="0 0 1037.94 772.29"><defs><linearGradient id="60672ce7-bfbc-4a60-a482-eb57e060a9c7" x1="521.94" y1="746.41" x2="521.94" y2="22.41" gradientUnits="userSpaceOnUse"><stop offset="0" stop-color="gray" stop-opacity="0.25"/><stop offset="0.54" stop-color="gray" stop-opacity="0.12"/><stop offset="1" stop-color="gray" stop-opacity="0.1"/></linearGradient><linearGradient id="b310ffb6-9937-4369-8bc9-4e3f67e27eb9" x1="748.44" y1="596.28" x2="748.44" y2="179.26" xlink:href="#60672ce7-bfbc-4a60-a482-eb57e060a9c7"/></defs><title>time management</title><path d="M185.48,141.19c-6.46,2.68-13.09,6.12-16.64,12.15-3.76,6.37-3.31,14.28-2.61,21.65,6.1,63.92,22.17,131.9-5.58,189.8-13.47,28.09-36,50.6-53.92,76.11s-31.45,57.36-23.13,87.37c10.16,36.67,48.08,57,73.64,85.22,16.73,18.45,28.46,40.87,44.07,60.28s37,36.51,61.92,37.65c35.84,1.65,65-29.3,100.14-36.47,36-7.34,72.25,11.34,101.44,33.7s55.74,49.45,89.75,63.41c37.56,15.43,79.9,13.07,119.44,22.34,36,8.45,69.14,26.42,104.88,36s77.63,9,105.32-15.47c36.09-32,33.25-89,56.3-131.33,21.41-39.33,63.32-62.81,91.53-97.58,50.76-62.58,49.1-158.23,6-226.29s-121.17-109.27-201-120c-36-4.83-73.07-4.17-107.68-15.16C636.71,195.17,581.58,89.83,487,67.91,426.88,54,368.41,78.09,317.2,107.74,272.75,133.48,231.74,122,185.48,141.19Z" transform="translate(-81.08 -63.86)" fill="#808080" opacity="0.1"/><path d="M275.76,347.69S241.63,379.9,205,380.86a71.09,71.09,0,0,0-42.37,15.07A119.57,119.57,0,0,0,146.79,411" transform="translate(-81.08 -63.86)" fill="none" stroke="#535461" stroke-miterlimit="10" stroke-width="2"/><path d="M123.69,411.79c4.92-2.5,23.7-.84,23.7-.84s-9.74,16.15-14.66,18.65a10,10,0,1,1-9-17.81Z" transform="translate(-81.08 -63.86)" fill="#808080"/><path d="M143.46,383.24c5.49.58,20.35,12.18,20.35,12.18s-17,8.26-22.44,7.69a10,10,0,0,1,2.09-19.87Z" transform="translate(-81.08 -63.86)" fill="#808080"/><path d="M190.34,360.23c4.44,3.27,11.42,20.79,11.42,20.79s-18.81-1.43-23.25-4.69a10,10,0,0,1,11.83-16.1Z" transform="translate(-81.08 -63.86)" fill="#808080"/><path d="M229.73,350.82c4.93,2.47,14.77,18.56,14.77,18.56s-18.78,1.77-23.71-.7a10,10,0,1,1,8.94-17.86Z" transform="translate(-81.08 -63.86)" fill="#808080"/><path d="M174.26,413.63c1.64-5.27-3.16-23.51-3.16-23.51s-14.28,12.32-15.92,17.59a10,10,0,1,0,19.08,5.92Z" transform="translate(-81.08 -63.86)" fill="#808080"/><path d="M220.19,402c0-5.52-10.05-21.48-10.05-21.48s-9.94,16-9.93,21.54a10,10,0,0,0,20-.06Z" transform="translate(-81.08 -63.86)" fill="#808080"/><path d="M263.28,384.64c.92-5.44-6.28-22.87-6.28-22.87s-12.51,14.12-13.42,19.56a10,10,0,0,0,19.7,3.32Z" transform="translate(-81.08 -63.86)" fill="#808080"/><path d="M320.11,262.39S279,239.81,266.78,205.22a71.09,71.09,0,0,0-27.37-35.69,119.57,119.57,0,0,0-19.24-10.4" transform="translate(-81.08 -63.86)" fill="none" stroke="#535461" stroke-miterlimit="10" stroke-width="2"/><path d="M212.37,137.38c3.89,3.91,8.08,22.3,8.08,22.3s-18.36-4.3-22.25-8.22a10,10,0,0,1,14.17-14.08Z" transform="translate(-81.08 -63.86)" fill="#808080"/><path d="M245.62,147.41c1.14,5.4-5.33,23.11-5.33,23.11s-13.07-13.59-14.21-19a10,10,0,1,1,19.55-4.12Z" transform="translate(-81.08 -63.86)" fill="#808080"/><path d="M281.92,185c-1.74,5.23-16.27,17.26-16.27,17.26s-4.42-18.33-2.68-23.57a10,10,0,0,1,19,6.31Z" transform="translate(-81.08 -63.86)" fill="#808080"/><path d="M303,219.55c-.83,5.45-13.12,19.76-13.12,19.76s-7.46-17.32-6.63-22.77a10,10,0,1,1,19.75,3Z" transform="translate(-81.08 -63.86)" fill="#808080"/><path d="M226.16,186.07c5.52-.06,21.4-10.24,21.4-10.24s-16.11-9.8-21.63-9.74a10,10,0,1,0,.23,20Z" transform="translate(-81.08 -63.86)" fill="#808080"/><path d="M251.32,226.21c5.24-1.71,17.35-16.17,17.35-16.17s-18.31-4.53-23.55-2.82a10,10,0,1,0,6.2,19Z" transform="translate(-81.08 -63.86)" fill="#808080"/><path d="M281.12,261.87c5.46-.8,19.84-13,19.84-13s-17.28-7.56-22.73-6.76a10,10,0,1,0,2.9,19.77Z" transform="translate(-81.08 -63.86)" fill="#808080"/><circle cx="521.94" cy="384.41" r="362" fill="url(#60672ce7-bfbc-4a60-a482-eb57e060a9c7)"/><circle cx="521.94" cy="384.41" r="356" fill="#808080"/><circle cx="521.94" cy="384.41" r="283" fill="#dde1ec"/><rect x="513.94" y="151.41" width="16" height="250" fill="#535461" opacity="0.3"/><g opacity="0.1"><rect x="538.94" y="378.41" width="226" height="20"/><rect x="516.95" y="333.31" width="20" height="160.52" transform="translate(-164.99 624.63) rotate(-62.36)"/><circle cx="521.94" cy="388.41" r="30"/></g><rect x="538.94" y="374.41" width="226" height="20" fill="#535461"/><rect x="446.69" y="399.57" width="160.52" height="20" transform="translate(169.1 -261.59) rotate(27.64)" fill="#535461"/><circle cx="521.94" cy="384.41" r="30" fill="#535461"/><g opacity="0.1"/><path d="M1044.4,508.14s-41.84,41.84-18.22,103.92S985.7,777.38,985.7,777.38s.69-.1,2-.32c85.93-15.17,128.62-113.44,80.84-186.45C1050.73,563.46,1036.15,531.62,1044.4,508.14Z" transform="translate(-81.08 -63.86)" fill="#808080"/><path d="M1044.4,508.84s-41.84,41.84-18.22,103.92S985.7,778.07,985.7,778.07s.69-.1,2-.32c85.93-15.17,128.62-113.44,80.84-186.45C1050.73,564.16,1036.15,532.32,1044.4,508.84Z" transform="translate(-81.08 -63.86)" opacity="0.1"/><path d="M1044.4,508.14s-23.62,51.28,0,93.12,4,159.25-58.71,176.12" transform="translate(-81.08 -63.86)" fill="none" stroke="#535461" stroke-miterlimit="10"/><path d="M1118.92,677.36s-47.74-7.6-52.09,35.18S975,761.25,975,761.25l1.64,1.09c72.2,47.4,141.23,30.19,130.82-32.75C1103.62,706.2,1103.94,682.7,1118.92,677.36Z" transform="translate(-81.08 -63.86)" fill="#808080"/><path d="M1118.92,677.36s-37.06,8.13-34,41.83-55,74.09-109.88,42.07" transform="translate(-81.08 -63.86)" fill="none" stroke="#535461" stroke-miterlimit="10"/><path d="M1076.92,762.81s-37.6-7.52-47.63-17.55-55.15-27.57-60.16-15-67.68,55.15-25.07,62.67,100.27,10,112.8,5S1076.92,762.81,1076.92,762.81Z" transform="translate(-81.08 -63.86)" fill="#a8a8a8"/><path d="M944.06,788.24c42.62,7.52,100.27,10,112.8,5,9.55-3.82,16.18-22.16,18.8-30.7l1.25.26s-7.52,30.08-20.05,35.09-70.19,2.51-112.8-5c-12.3-2.17-15.82-7.27-14.49-13.72C930.61,783.38,934.9,786.62,944.06,788.24Z" transform="translate(-81.08 -63.86)" opacity="0.2"/></svg>